<svg width="200" height="267" viewBox="0 0 200 267" xmlns="http://www.w3.org/2000/svg">
  <defs>
    <linearGradient id="grad1" x1="0%" y1="0%" x2="100%" y2="100%">
      <stop offset="0%" style="stop-color:#4CAF50;stop-opacity:1" />
      <stop offset="100%" style="stop-color:#2E7D32;stop-opacity:1" />
    </linearGradient>
  </defs>
  
  <!-- Fondo del c칩mic -->
  <rect width="200" height="267" fill="url(#grad1)" rx="8" ry="8"/>
  
  <!-- L칤neas de vi침etas -->
  <rect x="20" y="30" width="160" height="60" fill="none" stroke="white" stroke-width="2" rx="4"/>
  <rect x="20" y="100" width="75" height="50" fill="none" stroke="white" stroke-width="2" rx="4"/>
  <rect x="105" y="100" width="75" height="50" fill="none" stroke="white" stroke-width="2" rx="4"/>
  <rect x="20" y="160" width="160" height="50" fill="none" stroke="white" stroke-width="2" rx="4"/>
  
  <!-- Globos de di치logo -->
  <ellipse cx="60" cy="60" rx="25" ry="15" fill="white" opacity="0.9"/>
  <ellipse cx="140" cy="60" rx="20" ry="12" fill="white" opacity="0.9"/>
  <ellipse cx="100" cy="185" rx="30" ry="18" fill="white" opacity="0.9"/>
  
  <!-- Texto simulado -->
  <rect x="45" y="55" width="30" height="3" fill="#333" opacity="0.6" rx="1"/>
  <rect x="40" y="62" width="40" height="3" fill="#333" opacity="0.6" rx="1"/>
  
  <rect x="130" y="55" width="20" height="3" fill="#333" opacity="0.6" rx="1"/>
  <rect x="125" y="62" width="30" height="3" fill="#333" opacity="0.6" rx="1"/>
  
  <rect x="80" y="180" width="40" height="3" fill="#333" opacity="0.6" rx="1"/>
  <rect x="85" y="187" width="30" height="3" fill="#333" opacity="0.6" rx="1"/>
  <rect x="90" y="194" width="20" height="3" fill="#333" opacity="0.6" rx="1"/>
  
  <!-- Icono de c칩mic en el centro -->
  <circle cx="100" cy="230" r="15" fill="white" opacity="0.8"/>
  <text x="100" y="237" text-anchor="middle" font-family="Arial, sans-serif" font-size="20" fill="#2E7D32">游닀</text>
  
  <!-- Texto "C칍MIC" -->
  <text x="100" y="255" text-anchor="middle" font-family="Arial, sans-serif" font-size="12" font-weight="bold" fill="white">C칍MIC</text>
</svg>